<svg width="366" height="42" viewBox="0 0 366 42" fill="none" xmlns="http://www.w3.org/2000/svg">
<path d="M8.26691 29.6964L10.4633 29.896C10.4633 28.1374 10.5171 27.0161 10.5171 27.0161C7.23488 26.9523 3.96085 26.6649 0.717712 26.156C1.85531 30.3685 4.29282 34.1148 7.68325 36.8616C5.90922 28.867 6.39305 29.4813 8.26691 29.6964Z" fill="#FCB034"/>
<path d="M30.4456 2.41012C24.4489 -0.764943 17.2781 -0.805099 11.2462 2.30261C10.7157 3.88013 10.4333 5.53045 10.4091 7.19461C14.2236 6.65224 18.0777 6.43898 21.9287 6.55719C24.6013 6.55719 24.7779 6.64934 25.1312 7.57092V10.2435C27.4812 10.2435 29.739 10.2435 31.705 10.3587C31.7048 7.65949 31.2798 4.97716 30.4456 2.41012Z" fill="#6EB43F"/>
<path d="M13.8268 35.2718C12.168 35.0491 12.2371 34.3656 12.2295 33.8894C12.2295 33.7435 12.2295 32.1615 12.1603 30.0495C10.1022 29.8806 8.65837 29.75 8.28206 29.7116C6.39284 29.4889 5.90902 28.8822 7.68304 36.8615C16.4948 44.0067 29.4128 42.7439 36.6741 34.0276C33.3718 34.8494 26.5061 35.8708 13.8268 35.2718Z" fill="#F15C22"/>
<path d="M30.4456 2.41016C31.9816 6.32683 31.7205 13.1618 31.7589 13.5688C31.7973 13.9759 31.4747 15.1048 33.9476 15.051C36.2635 15.0422 38.576 15.2323 40.8594 15.6193C39.4039 9.94587 35.6227 5.14962 30.4456 2.41016Z" fill="#626364"/>
<path d="M13.2583 16.5409C14.0877 16.5409 19.1409 16.4487 25.2156 16.4871L25.1158 7.617C24.7548 6.69543 24.5859 6.62631 21.9133 6.60327C15.9478 6.44561 9.98535 7.01556 4.15775 8.3005C0.594505 13.0517 -0.766631 19.0999 0.417709 24.9195C3.25922 25.1422 7.77491 25.2958 12.0602 25.3803L11.9297 17.7005C11.9297 17.7005 11.7069 16.5409 13.2583 16.5409Z" fill="#002D62"/>
<path d="M41.1433 16.8941C36.4279 16.5716 30.4454 16.4564 25.2078 16.418L25.2923 23.852C25.2923 23.852 25.4997 25.3879 23.1957 25.3879C22.0054 25.3879 17.1978 25.3879 12.0601 25.2958C12.1292 29.3583 12.206 33.5592 12.206 33.8049C12.206 34.2811 12.1446 34.9569 13.8034 35.1873C26.5057 35.794 33.3791 34.7649 36.6737 33.9585C39.7854 30.253 41.4977 25.5728 41.5119 20.734C41.5075 19.4454 41.3841 18.16 41.1433 16.8941Z" fill="#0D5CAB"/>
<path d="M25.2924 23.8905L25.2079 16.4565C19.1332 16.4565 14.0799 16.4565 13.2505 16.5103C11.7146 16.5103 11.9219 17.6699 11.9219 17.6699L12.0525 25.3497C17.1902 25.4572 21.9901 25.4726 23.1881 25.4419C25.5074 25.4035 25.2924 23.8905 25.2924 23.8905Z" fill="#B1BCE0"/>
<path d="M51.6725 12.9851H48.5084V27.3693H51.6725V12.9851Z" fill="#002D62"/>
<path d="M53.5457 16.9556H56.2643V18.4301H56.3257C57.0129 17.3394 58.2161 16.6826 59.5051 16.6945C62.577 16.6945 63.345 18.4071 63.345 20.9875V27.3924H60.4574V21.502C60.4574 19.7894 59.9506 18.9447 58.622 18.9447C57.086 18.9447 56.4102 19.8125 56.4102 21.9321V27.3847H53.5457V16.9556Z" fill="#002D62"/>
<path d="M68.5978 16.9554H70.6944V18.8446H68.5978V23.9977C68.5978 24.9653 68.8359 25.2034 69.8036 25.2034C70.0998 25.2071 70.3956 25.1814 70.6867 25.1266V27.3614C70.1346 27.4373 69.5775 27.4706 69.0202 27.4613C67.2692 27.4613 65.7333 27.0619 65.7333 24.9884V18.8446H64.0053V16.9554H65.741V13.822H68.6055L68.5978 16.9554Z" fill="#002D62"/>
<path d="M74.1971 22.8611C74.2816 24.6736 75.1648 25.503 76.7545 25.503C77.7119 25.5534 78.6046 25.019 79.0124 24.1513H81.5313C80.9626 26.3407 78.9107 27.811 76.6547 27.6456C73.3754 27.6456 71.3326 25.3878 71.3326 22.1623C71.2572 20.7793 71.7343 19.423 72.659 18.3918C73.5836 17.3606 74.88 16.7389 76.263 16.6636H76.6547C80.2027 16.6636 81.9153 19.6433 81.7079 22.8535L74.1971 22.8611ZM78.8511 21.0487C78.59 19.5972 77.9679 18.8293 76.5472 18.8293C75.9481 18.7958 75.3604 19.0021 74.9137 19.4027C74.467 19.8032 74.1981 20.3651 74.1664 20.9642V21.0487H78.8511Z" fill="#002D62"/>
<path d="M82.9828 16.9939H85.7014V18.9292H85.7398C86.3233 17.5787 87.6554 16.7058 89.1266 16.7097C89.3378 16.7114 89.5475 16.745 89.7486 16.8096V19.4668C89.4098 19.399 89.065 19.3655 88.7195 19.3669C86.623 19.3669 85.9011 20.9029 85.9011 22.7076V27.3999H82.9828V16.9939Z" fill="#002D62"/>
<path d="M90.785 17.0093H93.5036V18.4301H93.565C94.2639 17.344 95.4763 16.6985 96.7675 16.7252C99.8394 16.7252 100.607 18.4377 100.607 21.0181V27.4231H97.7505V21.502C97.7505 19.7894 97.2436 18.9446 95.9151 18.9446C94.3791 18.9446 93.7033 19.8124 93.7033 21.9243V27.3847H90.8387L90.785 17.0093Z" fill="#002D62"/>
<path d="M104.486 22.8611C104.562 24.6736 105.453 25.503 107.043 25.503C108.001 25.5556 108.895 25.0205 109.301 24.1513H111.82C111.251 26.3407 109.199 27.811 106.943 27.6456C103.664 27.6456 101.629 25.3878 101.629 22.1623C101.553 20.7793 102.03 19.423 102.955 18.3918C103.88 17.3606 105.176 16.7389 106.559 16.6636H106.943C110.491 16.6636 112.204 19.6433 112.004 22.8535L104.486 22.8611ZM109.14 21.0487C108.878 19.5972 108.249 18.8293 106.836 18.8293C106.237 18.8043 105.652 19.0186 105.212 19.4248C104.771 19.8311 104.51 20.396 104.486 20.995V21.041L109.14 21.0487Z" fill="#002D62"/>
<path d="M124.937 27.3693H121.996L120.145 20.3807H120.107L118.333 27.3693H115.368L112.066 16.9556H115.092L117.004 24.0286H117.043L118.771 16.9556H121.551L123.325 24.0056H123.371L125.283 16.9556H128.224L124.937 27.3693Z" fill="#002D62"/>
<path d="M131.042 23.9824C131.042 25.2342 132.11 25.7334 133.239 25.7334C134.068 25.7334 135.112 25.4108 135.112 24.4048C135.112 23.537 133.922 23.2374 131.872 22.792C130.22 22.4311 128.569 21.8474 128.569 20.0119C128.569 17.3548 130.873 16.6636 133.1 16.6636C135.327 16.6636 137.47 17.4315 137.708 19.9889H134.99C134.913 18.883 134.06 18.5758 133.039 18.5758C132.394 18.5758 131.449 18.6987 131.449 19.5435C131.449 20.5726 133.062 20.7108 134.698 21.0794C136.333 21.4481 138 22.0701 138 24.0054C138 26.7471 135.627 27.6303 133.246 27.6303C130.866 27.6303 128.469 26.724 128.354 23.9593L131.042 23.9824Z" fill="#002D62"/>
<path d="M180.386 13.1818C180.386 9.46023 178.159 7.20455 175.148 7.20455C172.125 7.20455 169.903 9.46023 169.903 13.1818C169.903 16.8977 172.125 19.1591 175.148 19.1591C178.159 19.1591 180.386 16.9034 180.386 13.1818ZM178.648 13.1818C178.648 16.017 177.148 17.5568 175.148 17.5568C173.142 17.5568 171.648 16.017 171.648 13.1818C171.648 10.3466 173.142 8.80682 175.148 8.80682C177.148 8.80682 178.648 10.3466 178.648 13.1818ZM182.439 22.2727H184.138V17.642H184.24C184.547 18.1989 185.172 19.1705 186.763 19.1705C188.876 19.1705 190.411 17.4773 190.411 14.6534C190.411 11.8239 188.854 10.1591 186.746 10.1591C185.126 10.1591 184.541 11.1477 184.24 11.6875H184.098V10.2727H182.439V22.2727ZM184.104 14.6364C184.104 12.8125 184.899 11.6023 186.382 11.6023C187.922 11.6023 188.695 12.9034 188.695 14.6364C188.695 16.3864 187.899 17.7216 186.382 17.7216C184.922 17.7216 184.104 16.4716 184.104 14.6364ZM196.075 19.1761C197.979 19.1761 199.325 18.2386 199.712 16.8182L198.104 16.5284C197.797 17.3523 197.058 17.7727 196.092 17.7727C194.638 17.7727 193.661 16.8295 193.615 15.1477H199.82V14.5455C199.82 11.392 197.933 10.1591 195.956 10.1591C193.524 10.1591 191.922 12.0114 191.922 14.6932C191.922 17.4034 193.501 19.1761 196.075 19.1761ZM193.621 13.875C193.689 12.6364 194.587 11.5625 195.967 11.5625C197.286 11.5625 198.149 12.5398 198.155 13.875H193.621ZM203.403 13.8182C203.403 12.4261 204.256 11.6307 205.438 11.6307C206.591 11.6307 207.29 12.3864 207.29 13.6534V19H208.989V13.4489C208.989 11.2898 207.801 10.1591 206.017 10.1591C204.705 10.1591 203.847 10.767 203.443 11.6932H203.335V10.2727H201.705V19H203.403V13.8182ZM221.984 10.4205H223.678C223.626 8.55682 221.979 7.20455 219.615 7.20455C217.28 7.20455 215.49 8.53977 215.49 10.5455C215.49 12.1648 216.649 13.1136 218.518 13.6193L219.893 13.9943C221.138 14.3239 222.098 14.733 222.098 15.767C222.098 16.9034 221.013 17.6534 219.518 17.6534C218.166 17.6534 217.041 17.0511 216.939 15.7841H215.178C215.291 17.892 216.922 19.1932 219.53 19.1932C222.263 19.1932 223.837 17.7557 223.837 15.7841C223.837 13.6875 221.967 12.875 220.49 12.5114L219.354 12.2159C218.445 11.983 217.234 11.5568 217.24 10.4432C217.24 9.45455 218.143 8.72159 219.575 8.72159C220.911 8.72159 221.859 9.34659 221.984 10.4205ZM229.474 19.1761C231.935 19.1761 233.543 17.375 233.543 14.6761C233.543 11.9602 231.935 10.1591 229.474 10.1591C227.014 10.1591 225.406 11.9602 225.406 14.6761C225.406 17.375 227.014 19.1761 229.474 19.1761ZM229.48 17.75C227.872 17.75 227.122 16.3466 227.122 14.6705C227.122 13 227.872 11.5795 229.48 11.5795C231.077 11.5795 231.827 13 231.827 14.6705C231.827 16.3466 231.077 17.75 229.48 17.75ZM240.967 15.3807C240.973 16.8636 239.871 17.5682 238.916 17.5682C237.865 17.5682 237.138 16.8068 237.138 15.6193V10.2727H235.439V15.8239C235.439 17.9886 236.626 19.1136 238.303 19.1136C239.615 19.1136 240.507 18.4205 240.911 17.4886H241.001V19H242.672V10.2727H240.967V15.3807ZM244.955 19H246.653V13.6705C246.653 12.5341 247.534 11.7102 248.71 11.7102C249.04 11.7102 249.295 11.7784 249.5 11.8807L250.045 10.4602C249.756 10.267 249.381 10.142 248.903 10.142C247.869 10.142 247.006 10.7216 246.688 11.6591H246.597V10.2727H244.955V19ZM254.662 19.1761C256.724 19.1761 258.06 17.9375 258.247 16.2386H256.594C256.378 17.1818 255.645 17.7386 254.673 17.7386C253.236 17.7386 252.31 16.5398 252.31 14.6364C252.31 12.767 253.253 11.5909 254.673 11.5909C255.753 11.5909 256.412 12.2727 256.594 13.0909H258.247C258.065 11.3295 256.628 10.1591 254.645 10.1591C252.185 10.1591 250.594 12.0114 250.594 14.6761C250.594 17.3068 252.128 19.1761 254.662 19.1761ZM263.825 19.1761C265.729 19.1761 267.075 18.2386 267.462 16.8182L265.854 16.5284C265.547 17.3523 264.808 17.7727 263.842 17.7727C262.388 17.7727 261.411 16.8295 261.365 15.1477H267.57V14.5455C267.57 11.392 265.683 10.1591 263.706 10.1591C261.274 10.1591 259.672 12.0114 259.672 14.6932C259.672 17.4034 261.251 19.1761 263.825 19.1761ZM261.371 13.875C261.439 12.6364 262.337 11.5625 263.717 11.5625C265.036 11.5625 265.899 12.5398 265.905 13.875H261.371ZM280.172 10.4205H281.865C281.814 8.55682 280.166 7.20455 277.803 7.20455C275.467 7.20455 273.678 8.53977 273.678 10.5455C273.678 12.1648 274.837 13.1136 276.706 13.6193L278.081 13.9943C279.325 14.3239 280.286 14.733 280.286 15.767C280.286 16.9034 279.2 17.6534 277.706 17.6534C276.354 17.6534 275.229 17.0511 275.126 15.7841H273.365C273.479 17.892 275.109 19.1932 277.717 19.1932C280.45 19.1932 282.024 17.7557 282.024 15.7841C282.024 13.6875 280.155 12.875 278.678 12.5114L277.541 12.2159C276.632 11.983 275.422 11.5568 275.428 10.4432C275.428 9.45455 276.331 8.72159 277.763 8.72159C279.098 8.72159 280.047 9.34659 280.172 10.4205ZM287.662 19.1761C290.122 19.1761 291.73 17.375 291.73 14.6761C291.73 11.9602 290.122 10.1591 287.662 10.1591C285.202 10.1591 283.594 11.9602 283.594 14.6761C283.594 17.375 285.202 19.1761 287.662 19.1761ZM287.668 17.75C286.06 17.75 285.31 16.3466 285.31 14.6705C285.31 13 286.06 11.5795 287.668 11.5795C289.264 11.5795 290.014 13 290.014 14.6705C290.014 16.3466 289.264 17.75 287.668 17.75ZM297.78 10.2727H295.899V9.48864C295.899 8.71591 296.217 8.29545 297.047 8.29545C297.399 8.29545 297.649 8.375 297.808 8.42614L298.206 7.05114C297.967 6.96023 297.473 6.81818 296.786 6.81818C295.405 6.81818 294.195 7.625 294.195 9.26136V10.2727H292.848V11.6364H294.195V19H295.899V11.6364H297.78V10.2727ZM303.607 10.2727H301.817V8.18182H300.118V10.2727H298.839V11.6364H300.118V16.7898C300.112 18.375 301.322 19.142 302.663 19.1136C303.203 19.108 303.567 19.0057 303.766 18.9318L303.459 17.5284C303.345 17.5511 303.135 17.6023 302.862 17.6023C302.311 17.6023 301.817 17.4205 301.817 16.4375V11.6364H303.607V10.2727ZM307.378 19H309.105L310.878 12.6989H311.009L312.781 19H314.514L317.077 10.2727H315.321L313.622 16.6534H313.537L311.832 10.2727H310.077L308.361 16.6818H308.276L306.565 10.2727H304.81L307.378 19ZM321.69 19.1705C323.281 19.1705 323.906 18.1989 324.213 17.642H324.355V19H326.014V10.2727H324.315V11.6875H324.213C323.906 11.1477 323.327 10.1591 321.702 10.1591C319.594 10.1591 318.043 11.8239 318.043 14.6534C318.043 17.4773 319.571 19.1705 321.69 19.1705ZM322.065 17.7216C320.548 17.7216 319.759 16.3864 319.759 14.6364C319.759 12.9034 320.531 11.6023 322.065 11.6023C323.548 11.6023 324.344 12.8125 324.344 14.6364C324.344 16.4716 323.531 17.7216 322.065 17.7216ZM328.439 19H330.138V13.6705C330.138 12.5341 331.018 11.7102 332.195 11.7102C332.524 11.7102 332.78 11.7784 332.984 11.8807L333.53 10.4602C333.24 10.267 332.865 10.142 332.388 10.142C331.354 10.142 330.49 10.7216 330.172 11.6591H330.081V10.2727H328.439V19ZM338.232 19.1761C340.135 19.1761 341.482 18.2386 341.868 16.8182L340.26 16.5284C339.953 17.3523 339.214 17.7727 338.249 17.7727C336.794 17.7727 335.817 16.8295 335.771 15.1477H341.976V14.5455C341.976 11.392 340.089 10.1591 338.112 10.1591C335.68 10.1591 334.078 12.0114 334.078 14.6932C334.078 17.4034 335.658 19.1761 338.232 19.1761ZM335.777 13.875C335.845 12.6364 336.743 11.5625 338.124 11.5625C339.442 11.5625 340.305 12.5398 340.311 13.875H335.777ZM179.67 23.3636H177.932V31.9091H177.824L171.903 23.3636H170.278V35H172.034V26.4659H172.142L178.057 35H179.67V23.3636ZM185.857 35.1761C187.76 35.1761 189.107 34.2386 189.493 32.8182L187.885 32.5284C187.578 33.3523 186.839 33.7727 185.874 33.7727C184.419 33.7727 183.442 32.8295 183.396 31.1477H189.601V30.5455C189.601 27.392 187.714 26.1591 185.737 26.1591C183.305 26.1591 181.703 28.0114 181.703 30.6932C181.703 33.4034 183.283 35.1761 185.857 35.1761ZM183.402 29.875C183.47 28.6364 184.368 27.5625 185.749 27.5625C187.067 27.5625 187.93 28.5398 187.936 29.875H183.402ZM195.247 35.1761C197.151 35.1761 198.497 34.2386 198.884 32.8182L197.276 32.5284C196.969 33.3523 196.23 33.7727 195.264 33.7727C193.81 33.7727 192.832 32.8295 192.787 31.1477H198.991V30.5455C198.991 27.392 197.105 26.1591 195.128 26.1591C192.696 26.1591 191.094 28.0114 191.094 30.6932C191.094 33.4034 192.673 35.1761 195.247 35.1761ZM192.793 29.875C192.861 28.6364 193.759 27.5625 195.139 27.5625C196.457 27.5625 197.321 28.5398 197.327 29.875H192.793ZM204.143 35.1705C205.734 35.1705 206.359 34.1989 206.666 33.642H206.808V35H208.467V23.3636H206.768V27.6875H206.666C206.359 27.1477 205.78 26.1591 204.155 26.1591C202.047 26.1591 200.496 27.8239 200.496 30.6534C200.496 33.4773 202.024 35.1705 204.143 35.1705ZM204.518 33.7216C203.001 33.7216 202.212 32.3864 202.212 30.6364C202.212 28.9034 202.984 27.6023 204.518 27.6023C206.001 27.6023 206.797 28.8125 206.797 30.6364C206.797 32.4716 205.984 33.7216 204.518 33.7216ZM217.432 28.4034C217.08 27.0455 216.017 26.1591 214.131 26.1591C212.159 26.1591 210.761 27.1989 210.761 28.7443C210.761 29.983 211.511 30.8068 213.148 31.1705L214.625 31.4943C215.466 31.6818 215.858 32.0568 215.858 32.6023C215.858 33.2784 215.136 33.8068 214.023 33.8068C213.006 33.8068 212.352 33.3693 212.148 32.5114L210.506 32.7614C210.79 34.3068 212.074 35.1761 214.034 35.1761C216.142 35.1761 217.602 34.0568 217.602 32.4773C217.602 31.2443 216.818 30.483 215.216 30.1136L213.83 29.7955C212.869 29.5682 212.455 29.2443 212.46 28.6534C212.455 27.983 213.182 27.5057 214.148 27.5057C215.205 27.5057 215.693 28.0909 215.892 28.6761L217.432 28.4034ZM224.824 35L225.892 31.9205H230.438L231.5 35H233.364L229.176 23.3636H227.148L222.96 35H224.824ZM226.403 30.4432L228.119 25.4773H228.21L229.926 30.4432H226.403ZM241.385 28.4034C241.033 27.0455 239.97 26.1591 238.084 26.1591C236.112 26.1591 234.714 27.1989 234.714 28.7443C234.714 29.983 235.464 30.8068 237.101 31.1705L238.578 31.4943C239.419 31.6818 239.811 32.0568 239.811 32.6023C239.811 33.2784 239.089 33.8068 237.976 33.8068C236.959 33.8068 236.305 33.3693 236.101 32.5114L234.459 32.7614C234.743 34.3068 236.027 35.1761 237.987 35.1761C240.095 35.1761 241.555 34.0568 241.555 32.4773C241.555 31.2443 240.771 30.483 239.169 30.1136L237.783 29.7955C236.822 29.5682 236.408 29.2443 236.413 28.6534C236.408 27.983 237.135 27.5057 238.101 27.5057C239.158 27.5057 239.646 28.0909 239.845 28.6761L241.385 28.4034ZM249.963 28.4034C249.611 27.0455 248.548 26.1591 246.662 26.1591C244.69 26.1591 243.293 27.1989 243.293 28.7443C243.293 29.983 244.043 30.8068 245.679 31.1705L247.156 31.4943C247.997 31.6818 248.389 32.0568 248.389 32.6023C248.389 33.2784 247.668 33.8068 246.554 33.8068C245.537 33.8068 244.884 33.3693 244.679 32.5114L243.037 32.7614C243.321 34.3068 244.605 35.1761 246.565 35.1761C248.673 35.1761 250.134 34.0568 250.134 32.4773C250.134 31.2443 249.349 30.483 247.747 30.1136L246.361 29.7955C245.401 29.5682 244.986 29.2443 244.991 28.6534C244.986 27.983 245.713 27.5057 246.679 27.5057C247.736 27.5057 248.224 28.0909 248.423 28.6761L249.963 28.4034ZM255.763 35.1761C257.666 35.1761 259.013 34.2386 259.399 32.8182L257.791 32.5284C257.484 33.3523 256.746 33.7727 255.78 33.7727C254.325 33.7727 253.348 32.8295 253.303 31.1477H259.507V30.5455C259.507 27.392 257.621 26.1591 255.643 26.1591C253.212 26.1591 251.609 28.0114 251.609 30.6932C251.609 33.4034 253.189 35.1761 255.763 35.1761ZM253.308 29.875C253.376 28.6364 254.274 27.5625 255.655 27.5625C256.973 27.5625 257.837 28.5398 257.842 29.875H253.308ZM267.932 28.4034C267.58 27.0455 266.517 26.1591 264.631 26.1591C262.659 26.1591 261.261 27.1989 261.261 28.7443C261.261 29.983 262.011 30.8068 263.648 31.1705L265.125 31.4943C265.966 31.6818 266.358 32.0568 266.358 32.6023C266.358 33.2784 265.636 33.8068 264.523 33.8068C263.506 33.8068 262.852 33.3693 262.648 32.5114L261.006 32.7614C261.29 34.3068 262.574 35.1761 264.534 35.1761C266.642 35.1761 268.102 34.0568 268.102 32.4773C268.102 31.2443 267.318 30.483 265.716 30.1136L264.33 29.7955C263.369 29.5682 262.955 29.2443 262.96 28.6534C262.955 27.983 263.682 27.5057 264.648 27.5057C265.705 27.5057 266.193 28.0909 266.392 28.6761L267.932 28.4034ZM276.51 28.4034C276.158 27.0455 275.095 26.1591 273.209 26.1591C271.237 26.1591 269.839 27.1989 269.839 28.7443C269.839 29.983 270.589 30.8068 272.226 31.1705L273.703 31.4943C274.544 31.6818 274.936 32.0568 274.936 32.6023C274.936 33.2784 274.214 33.8068 273.101 33.8068C272.084 33.8068 271.43 33.3693 271.226 32.5114L269.584 32.7614C269.868 34.3068 271.152 35.1761 273.112 35.1761C275.22 35.1761 276.68 34.0568 276.68 32.4773C276.68 31.2443 275.896 30.483 274.294 30.1136L272.908 29.7955C271.947 29.5682 271.533 29.2443 271.538 28.6534C271.533 27.983 272.26 27.5057 273.226 27.5057C274.283 27.5057 274.771 28.0909 274.97 28.6761L276.51 28.4034ZM278.548 35H280.247V29.6193C280.247 28.4432 281.071 27.625 282.037 27.625C282.98 27.625 283.634 28.25 283.634 29.1989V35H285.327V29.4375C285.327 28.3864 285.969 27.625 287.077 27.625C287.974 27.625 288.713 28.125 288.713 29.3068V35H290.412V29.1477C290.412 27.1534 289.298 26.1591 287.719 26.1591C286.463 26.1591 285.52 26.7614 285.099 27.6932H285.009C284.628 26.7386 283.827 26.1591 282.662 26.1591C281.509 26.1591 280.651 26.733 280.287 27.6932H280.179V26.2727H278.548V35ZM296.45 35.1761C298.354 35.1761 299.7 34.2386 300.087 32.8182L298.479 32.5284C298.172 33.3523 297.433 33.7727 296.467 33.7727C295.013 33.7727 294.036 32.8295 293.99 31.1477H300.195V30.5455C300.195 27.392 298.308 26.1591 296.331 26.1591C293.899 26.1591 292.297 28.0114 292.297 30.6932C292.297 33.4034 293.876 35.1761 296.45 35.1761ZM293.996 29.875C294.064 28.6364 294.962 27.5625 296.342 27.5625C297.661 27.5625 298.524 28.5398 298.53 29.875H293.996ZM303.778 29.8182C303.778 28.4261 304.631 27.6307 305.812 27.6307C306.966 27.6307 307.665 28.3864 307.665 29.6534V35H309.364V29.4489C309.364 27.2898 308.176 26.1591 306.392 26.1591C305.08 26.1591 304.222 26.767 303.818 27.6932H303.71V26.2727H302.08V35H303.778V29.8182ZM315.716 26.2727H313.926V24.1818H312.227V26.2727H310.949V27.6364H312.227V32.7898C312.222 34.375 313.432 35.142 314.773 35.1136C315.312 35.108 315.676 35.0057 315.875 34.9318L315.568 33.5284C315.455 33.5511 315.244 33.6023 314.972 33.6023C314.42 33.6023 313.926 33.4205 313.926 32.4375V27.6364H315.716V26.2727Z" fill="#002D62"/>
<path d="M155 1L155 41" stroke="#002D62"/>
</svg>
